<svg width="401" height="311" viewBox="0 0 401 311" fill="none" xmlns="http://www.w3.org/2000/svg">
<ellipse cx="57.7151" cy="65.8696" rx="57.7151" ry="58.0493" fill="#63696B"/>
<ellipse cx="343.284" cy="57.7486" rx="57.7151" ry="57.7486" fill="#63696B"/>
<ellipse cx="184.869" cy="21.956" rx="0.300598" ry="0.300774" fill="#D9D9D9"/>
<path d="M396.893 155.5C396.893 241.004 309.884 310.5 202.304 310.5C94.7236 310.5 7.71484 241.004 7.71484 155.5C7.71484 69.9957 94.7236 0.5 202.304 0.5C309.884 0.5 396.893 69.9957 396.893 155.5Z" fill="white" stroke="black"/>
<path d="M165.33 140.161C165.33 173.383 138.413 200.316 105.21 200.316C72.0065 200.316 45.0898 173.383 45.0898 140.161C45.0898 106.938 101.165 89.9316 134.368 89.9316C167.571 89.9316 165.33 106.938 165.33 140.161Z" fill="#63696B"/>
<ellipse cx="105.21" cy="140.161" rx="15.03" ry="15.0387" fill="black"/>
<path d="M355.911 140.161C355.911 173.383 328.994 200.316 295.791 200.316C262.587 200.316 235.671 173.383 235.671 140.161C235.671 106.938 228.92 93.8418 262.123 93.8418C295.326 93.8418 355.911 106.938 355.911 140.161Z" fill="#63696B"/>
<ellipse cx="295.79" cy="140.161" rx="15.03" ry="15.0387" fill="black"/>
<ellipse cx="200.5" cy="217.46" rx="17.1342" ry="17.1441" fill="black"/>
</svg>
